<?xml version="1.0" encoding="UTF-8" standalone="no"?>
<!-- Created with Inkscape (http://www.inkscape.org/) -->

<svg
   width="101.59999mm"
   height="67.204155mm"
   viewBox="0 0 101.59999 67.204155"
   version="1.1"
   id="svg5"
   inkscape:version="1.2.2 (732a01da63, 2022-12-09)"
   sodipodi:docname="Jointures-Schema.svg"
   xmlns:inkscape="http://www.inkscape.org/namespaces/inkscape"
   xmlns:sodipodi="http://sodipodi.sourceforge.net/DTD/sodipodi-0.dtd"
   xmlns="http://www.w3.org/2000/svg"
   xmlns:svg="http://www.w3.org/2000/svg">
  <sodipodi:namedview
     id="namedview7"
     pagecolor="#ffffff"
     bordercolor="#999999"
     borderopacity="1"
     inkscape:showpageshadow="0"
     inkscape:pageopacity="0"
     inkscape:pagecheckerboard="0"
     inkscape:deskcolor="#d1d1d1"
     inkscape:document-units="mm"
     showgrid="false"
     inkscape:zoom="0.45745301"
     inkscape:cx="-1102.8455"
     inkscape:cy="236.08982"
     inkscape:window-width="2560"
     inkscape:window-height="1361"
     inkscape:window-x="-9"
     inkscape:window-y="-9"
     inkscape:window-maximized="1"
     inkscape:current-layer="layer1" />
  <defs
     id="defs2" />
  <g
     inkscape:label="Calque 1"
     inkscape:groupmode="layer"
     id="layer1"
     transform="translate(-2.6840208,-71.121344)">
    <g
       id="g6696"
       transform="translate(-42.329325,-44.57871)"
       inkscape:label="InnerJoin">
      <path
         id="rect11849"
         style="fill:#4f5d95;fill-opacity:1;stroke:none;stroke-width:1.01427;stroke-dasharray:none;stroke-opacity:1"
         d="m 95.369373,121.36469 a 33.072918,33.072918 0 0 0 -15.4311,27.93731 33.072918,33.072918 0 0 0 15.875,28.22101 A 33.072918,33.072918 0 0 0 111.68827,149.302 33.072918,33.072918 0 0 0 96.309884,121.36469 Z m 0.4439,56.15832 a 33.072918,33.072918 0 0 1 -0.119372,0.076 h 0.238745 a 33.072918,33.072918 0 0 1 -0.119373,-0.076 z"
         inkscape:label="Inner Join BG" />
      <path
         id="path111-5"
         style="display:inline;fill:#eff1f4;fill-rule:evenodd;stroke:#00b4ab;stroke-width:1.05833;stroke-opacity:1"
         d="m 146.08418,149.30214 a 33.072918,33.072918 0 0 1 -33.07292,33.07291 33.072918,33.072918 0 0 1 -33.072908,-33.07291 33.072918,33.072918 0 0 1 33.072908,-33.07292 33.072918,33.072918 0 0 1 33.07292,33.07292 z m -34.39584,0 a 33.072918,33.072918 0 0 1 -33.072908,33.07291 33.072918,33.072918 0 0 1 -33.072921,-33.07291 33.072918,33.072918 0 0 1 33.072921,-33.07292 33.072918,33.072918 0 0 1 33.072908,33.07292 z"
         inkscape:label="Circle" />
      <text
         xml:space="preserve"
         style="font-style:normal;font-weight:normal;font-size:6.35px;line-height:6.35px;font-family:sans-serif;fill:#000000;fill-opacity:1;stroke:none;stroke-width:0.264583"
         x="95.357483"
         y="148.51956"
         id="text12013"
         inkscape:label="text Inner Join"><tspan
           sodipodi:role="line"
           id="tspan12011"
           style="font-style:italic;font-variant:normal;font-weight:normal;font-stretch:normal;font-size:6.35px;font-family:Arial;-inkscape-font-specification:'Arial Italic';text-align:center;text-anchor:middle;fill:#ffffff;fill-opacity:1;stroke-width:0.264583"
           x="95.357483"
           y="148.51956">Inner</tspan><tspan
           sodipodi:role="line"
           style="font-style:italic;font-variant:normal;font-weight:normal;font-stretch:normal;font-size:6.35px;font-family:Arial;-inkscape-font-specification:'Arial Italic';text-align:center;text-anchor:middle;fill:#ffffff;fill-opacity:1;stroke-width:0.264583"
           x="95.357483"
           y="154.91205"
           id="tspan12015">Join</tspan></text>
      <text
         xml:space="preserve"
         style="font-style:normal;font-weight:normal;font-size:6.35px;line-height:1.25;font-family:sans-serif;fill:#000000;fill-opacity:1;stroke:none;stroke-width:0.264583"
         x="54.562805"
         y="151.53766"
         id="text3177"
         inkscape:label="text Prices"><tspan
           sodipodi:role="line"
           id="tspan3175"
           style="font-style:normal;font-variant:normal;font-weight:normal;font-stretch:normal;font-size:6.35px;font-family:Arial;-inkscape-font-specification:Arial;fill:#484f58;fill-opacity:1;stroke-width:0.264583"
           x="54.562805"
           y="151.53766">Prices</tspan></text>
      <text
         xml:space="preserve"
         style="font-style:normal;font-weight:normal;font-size:6.35px;line-height:1.25;font-family:sans-serif;fill:#000000;fill-opacity:1;stroke:none;stroke-width:0.264583"
         x="114.35859"
         y="151.43845"
         id="text3177-8"
         inkscape:label="text Quantities"><tspan
           sodipodi:role="line"
           id="tspan3175-6"
           style="font-style:normal;font-variant:normal;font-weight:normal;font-stretch:normal;font-size:6.35px;font-family:Arial;-inkscape-font-specification:Arial;fill:#484f58;fill-opacity:1;stroke-width:0.264583"
           x="114.35859"
           y="151.43845">Quantities</tspan></text>
    </g>
  </g>
</svg>
